<svg width="64" height="64" enable-background="new 0 0 100 100" version="1.1" viewBox="0 0 64 64" xmlns="http://www.w3.org/2000/svg">
 <g transform="translate(-73.671 -29.113)" fill="#05161c">
  <g transform="translate(241.49,-134.43)" fill="#05161c">
   <g transform="matrix(1.2961,0,0,1.2961,-255.43,116.24)">
    <path d="m74.248 37.055c-0.50135-0.02748-0.8896 0.02839-1.1489 0.1781-4.1485 2.3951-4.1485 45.508 0 47.904 4.1485 2.3951 41.485-19.161 41.485-23.951 2e-5 -4.4909-32.816-23.719-40.337-24.13zm21.612 16.888c0.89396 0 1.7886 0.36038 2.5038 1.0755 1.4303 1.4303 1.4303 3.5737 0 5.0041l-1.0721 1.0721 1.0721 1.0755c1.4303 1.4303 1.4303 3.5737 0 5.0041-0.71517 0.71517-1.6098 1.0721-2.5038 1.0721s-1.7851-0.35689-2.5002-1.0721l-1.0755-0.89396-1.0721 1.0721c-0.71517 0.71517-1.6098 1.0755-2.5038 1.0755s-1.7851-0.36038-2.5002-1.0755c-1.4303-1.4303-1.4303-3.5737 0-5.0041l1.0721-1.0721-1.0721-1.0755c-1.4303-1.4303-1.4303-3.5737 0-5.0041s3.5737-1.4303 5.0041 0l1.0721 0.89396 1.0755-1.0721c0.71517-0.71517 1.6063-1.0755 2.5002-1.0755z" fill="#05161c"/>
   </g>
   <flowRoot transform="translate(-241.49,134.43)" font-family="sans-serif" font-size="40px" letter-spacing="0px" word-spacing="0px" style="line-height:1.25" xml:space="preserve"><flowRegion fill="#05161c"><rect x="221.68" y="-36.397" width="113.31" height="44.548" fill="#05161c"/></flowRegion><flowPara/></flowRoot>
  </g>
 </g>
</svg>
