<svg width="150" height="100" enable-background="new 0 0 100 100" version="1.1" viewBox="0 0 150 100" xmlns="http://www.w3.org/2000/svg">
 <g transform="translate(22.749 3.3869)" fill="#05161c">
  <g transform="translate(241.49,-134.43)" fill="#05161c">
   <g transform="matrix(1.2961,0,0,1.2961,-255.43,116.24)">
    <path d="m11.6 36.5c-0.5 0-1.0004 0.19961-1.4004 0.59961-0.8 0.8-0.8 2.0008 0 2.8008l10.102 10.1-10.102 10.1c-0.8 0.8-0.8 2.0008 0 2.8008 0.4 0.4 0.90039 0.59961 1.4004 0.59961s1.0004-0.19961 1.4004-0.59961l11-10.9h10.699v9.4004c0 1.1 0.9 2 2 2s2-0.9 2-2v-9.4004h13.301v9.4004c0 1.1 0.9 2 2 2s2-0.9 2-2v-9.4004h9.5v-4h-9.5v-9.4004c0-1.1-0.9-2-2-2s-2 0.9-2 2v9.4004h-13.4v-9.4004c0-1.1-0.9-2-2-2s-2 0.9-2 2v9.4004h-10.6l-11-10.9c-0.4-0.4-0.90039-0.59961-1.4004-0.59961zm58.379 0c-0.28041-0.01537-0.49756 0.01588-0.64258 0.09961-2.3203 1.3396-2.3203 25.453 0 26.793 2.3203 1.3396 23.203-10.717 23.203-13.396 1.2e-5 -2.5118-18.354-13.266-22.561-13.496zm12.088 9.4453c0.5 0 1.0004 0.20156 1.4004 0.60156 0.8 0.8 0.8 1.9988 0 2.7988l-0.59961 0.59961 0.59961 0.60156c0.8 0.8 0.8 1.9988 0 2.7988-0.4 0.4-0.90039 0.59961-1.4004 0.59961s-0.99844-0.19961-1.3984-0.59961l-0.60156-0.5-0.59961 0.59961c-0.4 0.4-0.90039 0.60156-1.4004 0.60156s-0.99844-0.20156-1.3984-0.60156c-0.8-0.8-0.8-1.9988 0-2.7988l0.59961-0.59961-0.59961-0.60156c-0.8-0.8-0.8-1.9988 0-2.7988s1.9988-0.8 2.7988 0l0.59961 0.5 0.60156-0.59961c0.4-0.4 0.89844-0.60156 1.3984-0.60156z" fill="#05161c"/>
   </g>
   <flowRoot transform="translate(-241.49,134.43)" font-family="sans-serif" font-size="40px" letter-spacing="0px" word-spacing="0px" style="line-height:1.25" xml:space="preserve"><flowRegion fill="#05161c"><rect x="221.68" y="-36.397" width="113.31" height="44.548" fill="#05161c"/></flowRegion><flowPara/></flowRoot>
  </g>
 </g>
</svg>
