<?xml version="1.0" encoding="UTF-8" standalone="no"?>
<svg
   xmlns:dc="http://purl.org/dc/elements/1.1/"
   xmlns:cc="http://creativecommons.org/ns#"
   xmlns:rdf="http://www.w3.org/1999/02/22-rdf-syntax-ns#"
   xmlns:svg="http://www.w3.org/2000/svg"
   xmlns="http://www.w3.org/2000/svg"
   xmlns:sodipodi="http://sodipodi.sourceforge.net/DTD/sodipodi-0.dtd"
   xmlns:inkscape="http://www.inkscape.org/namespaces/inkscape"
   width="150"
   height="100"
   enable-background="new 0 0 100 100"
   version="1.1"
   viewBox="0 0 150 100"
   xml:space="preserve"
   id="svg20"
   sodipodi:docname="logo.svg"
   inkscape:version="0.92.3 (unknown)"><metadata
     id="metadata26"><rdf:RDF><cc:Work
         rdf:about=""><dc:format>image/svg+xml</dc:format><dc:type
           rdf:resource="http://purl.org/dc/dcmitype/StillImage" /><dc:title /></cc:Work></rdf:RDF></metadata><defs
     id="defs24" /><sodipodi:namedview
     pagecolor="#ffffff"
     bordercolor="#666666"
     borderopacity="1"
     objecttolerance="10"
     gridtolerance="10"
     guidetolerance="10"
     inkscape:pageopacity="0"
     inkscape:pageshadow="2"
     inkscape:window-width="2880"
     inkscape:window-height="1591"
     id="namedview22"
     showgrid="false"
     inkscape:zoom="6.2933332"
     inkscape:cx="69.001211"
     inkscape:cy="39.674786"
     inkscape:window-x="0"
     inkscape:window-y="0"
     inkscape:window-maximized="1"
     inkscape:current-layer="svg20" /><g
     transform="translate(22.748808,3.3869147)"
     id="g18"
     style="fill:#333333;fill-opacity:1"><g
       transform="matrix(0.30462,0,0,0.30462,-444.58,39.34)"
       id="g2"
       style="fill:#333333;fill-opacity:1">
</g><g
       transform="translate(241.49,-134.43)"
       id="g16"
       style="fill:#333333;fill-opacity:1"><g
         transform="matrix(1.2961,0,0,1.2961,-255.43,116.24)"
         id="g6"
         style="fill:#333333;fill-opacity:1"><path
           d="m 11.6,36.5 c -0.5,0 -1.0004,0.19961 -1.4004,0.59961 -0.8,0.8 -0.8,2.0008 0,2.8008 l 10.102,10.1 -10.102,10.1 c -0.8,0.8 -0.8,2.0008 0,2.8008 0.4,0.4 0.90039,0.59961 1.4004,0.59961 0.50001,0 1.0004,-0.19961 1.4004,-0.59961 l 11,-10.9 h 10.699 v 9.4004 c 0,1.1 0.9,2 2,2 1.1,0 2,-0.9 2,-2 v -9.4004 h 13.301 v 9.4004 c 0,1.1 0.9,2 2,2 1.1,0 2,-0.9 2,-2 v -9.4004 h 9.5 v -4 h -9.5 v -9.4004 c 0,-1.1 -0.9,-2 -2,-2 -1.1,0 -2,0.9 -2,2 v 9.4004 h -13.4 v -9.4004 c 0,-1.1 -0.9,-2 -2,-2 -1.1,0 -2,0.9 -2,2 v 9.4004 h -10.6 l -11,-10.9 c -0.4,-0.4 -0.90039,-0.59961 -1.4004,-0.59961 z m 58.379,0 c -0.28041,-0.01537 -0.49756,0.01588 -0.64258,0.09961 -2.3203,1.3396 -2.3203,25.453 0,26.793 2.3203,1.3396 23.203,-10.717 23.203,-13.396 1.2e-5,-2.5118 -18.354,-13.266 -22.561,-13.496 z m 12.088,9.4453 c 0.5,0 1.0004,0.20156 1.4004,0.60156 0.8,0.8 0.8,1.9988 0,2.7988 l -0.59961,0.59961 0.59961,0.60156 c 0.8,0.8 0.8,1.9988 0,2.7988 -0.4,0.4 -0.90039,0.59961 -1.4004,0.59961 -0.50001,0 -0.99844,-0.19961 -1.3984,-0.59961 l -0.60156,-0.5 -0.59961,0.59961 c -0.4,0.4 -0.90039,0.60156 -1.4004,0.60156 -0.50001,0 -0.99844,-0.20156 -1.3984,-0.60156 -0.8,-0.8 -0.8,-1.9988 0,-2.7988 l 0.59961,-0.59961 -0.59961,-0.60156 c -0.8,-0.8 -0.8,-1.9988 0,-2.7988 0.8,-0.8 1.9988,-0.8 2.7988,0 l 0.59961,0.5 0.60156,-0.59961 c 0.4,-0.4 0.89844,-0.60156 1.3984,-0.60156 z"
           id="path4"
           inkscape:connector-curvature="0"
           style="fill:#333333;fill-opacity:1" /></g><flowRoot
         transform="translate(-241.49,134.43)"
         font-size="40px"
         letter-spacing="0px"
         word-spacing="0px"
         style="font-size:40px;line-height:1.25;font-family:sans-serif;letter-spacing:0px;word-spacing:0px;fill:#333333;fill-opacity:1"
         xml:space="preserve"
         id="flowRoot14"><flowRegion
           id="flowRegion10"
           style="fill:#333333;fill-opacity:1"><rect
             x="221.67999"
             y="-36.396999"
             width="113.31"
             height="44.548"
             id="rect8"
             style="fill:#333333;fill-opacity:1" /></flowRegion><flowPara
           id="flowPara12" /></flowRoot></g></g></svg>